<svg width="46" height="46" viewBox="0 0 46 46" fill="none" xmlns="http://www.w3.org/2000/svg">
<path d="M28.3721 1.79077H22.9998V5.14841H26.6931V11.472C26.6931 17.0261 22.1743 21.545 16.6201 21.545C11.066 21.545 6.54722 17.0262 6.54722 11.4721V5.14841H10.1287V1.79077H4.8684C3.94112 1.79077 3.18958 2.54231 3.18958 3.46959V11.4721C3.18958 18.878 9.21432 24.9027 16.6202 24.9027C24.0261 24.9027 30.0509 18.878 30.0509 11.4721V3.46959C30.0509 2.54231 29.2993 1.79077 28.3721 1.79077Z" fill="#005A2A"/>
<path d="M34.9193 26.3017V34.2482C34.9193 38.8767 31.1537 42.6424 26.5251 42.6424C21.8966 42.6424 18.131 38.8767 18.131 34.2482V23.2798H14.7733V34.2482C14.7733 40.7279 20.0448 46 26.5251 46C33.0049 46 38.277 40.7279 38.277 34.2482V26.3017H34.9193Z" fill="#005A2A"/>
<path d="M36.5988 15.4453C33.1729 15.4453 30.3866 18.2316 30.3866 21.657C30.3866 25.0818 33.1729 27.8687 36.5983 27.8687C40.0237 27.8687 42.81 25.0818 42.8106 21.657C42.8105 18.2316 40.0237 15.4453 36.5988 15.4453ZM36.5983 24.511C35.0242 24.511 33.7437 23.2307 33.7437 21.657C33.7437 20.0834 35.0241 18.8031 36.5983 18.8031C38.1719 18.8031 39.4523 20.0834 39.4523 21.657C39.4523 23.2307 38.1719 24.511 36.5983 24.511Z" fill="#005A2A"/>
<path d="M10.0727 0C9.14546 0 8.39392 0.751543 8.39392 1.67882V5.26035C8.39392 6.18763 9.14546 6.93917 10.0727 6.93917C11 6.93917 11.7516 6.18763 11.7516 5.26035V1.67882C11.7516 0.751543 11 0 10.0727 0Z" fill="#005A2A"/>
<path d="M23.0558 0C22.1285 0 21.377 0.751543 21.377 1.67882V5.26035C21.377 6.18763 22.1285 6.93917 23.0558 6.93917C23.983 6.93917 24.7346 6.18763 24.7346 5.26035V1.67882C24.7346 0.751543 23.983 0 23.0558 0Z" fill="#005A2A"/>
</svg>
