<svg width="46" height="46" viewBox="0 0 46 46" fill="none" xmlns="http://www.w3.org/2000/svg">
<g clip-path="url(#clip0)">
<path d="M45.4736 23.1446C43.4985 21.1694 41.3082 19.4863 38.9322 18.1095V10.2797C38.9322 9.55289 38.4946 8.89766 37.8232 8.61971C28.3594 4.69957 17.7666 4.64763 8.17686 8.61971C7.50549 8.89766 7.06785 9.55289 7.06785 10.2797V18.1095C4.69191 19.4863 2.50161 21.1691 0.526451 23.1446C-0.0206845 23.6914 -0.156152 24.527 0.189887 25.2187L7.25737 39.354C7.67921 40.1974 8.68118 40.5711 9.55225 40.2107C18.2404 36.6117 27.8481 36.6485 36.4478 40.2107C37.3172 40.5704 38.3198 40.1995 38.7424 39.354L45.8102 25.2187C46.1562 24.527 46.0204 23.6917 45.4736 23.1446ZM10.6616 11.5017C18.6728 8.48916 27.4108 8.5225 35.3385 11.5017V16.3224C27.64 13.0845 18.7342 12.9266 10.6616 16.3224V11.5017ZM36.2608 36.2818C27.7912 33.1874 18.4152 33.1099 9.73895 36.2818L3.99667 24.7969C14.8162 14.9014 31.3215 15.0271 42.0031 24.7969L36.2608 36.2818ZM28.3307 25.3138C28.3307 26.306 27.5263 27.1107 26.5338 27.1107H24.7969V28.8476C24.7969 29.8401 23.9925 30.6444 23 30.6444C22.0076 30.6444 21.2032 29.8401 21.2032 28.8476V27.1107H19.4663C18.4738 27.1107 17.6694 26.306 17.6694 25.3138C17.6694 24.3213 18.4738 23.5169 19.4663 23.5169H21.2032V21.7797C21.2032 20.7876 22.0076 19.9829 23 19.9829C23.9925 19.9829 24.7969 20.7876 24.7969 21.7797V23.5169H26.5338C27.5263 23.5169 28.3307 24.3213 28.3307 25.3138Z" fill="#005A2A"/>
</g>
<defs>
<clipPath id="clip0">
<rect width="46" height="46" fill="white"/>
</clipPath>
</defs>
</svg>
