<svg width="46" height="46" viewBox="0 0 46 46" fill="none" xmlns="http://www.w3.org/2000/svg">
<path d="M0.000976562 16.4863C0.000976562 23.7643 2.43457 27.2789 4.21141 29.8452C5.26151 31.3618 6.02024 32.4576 6.02024 33.8711V44.6523C6.02024 45.3965 6.62372 45.9999 7.36789 45.9999H24.079C24.8233 45.9999 25.4267 45.3965 25.4267 44.6523V41.9575H31.6259C32.3702 41.9575 32.9735 41.3541 32.9735 40.6098V36.5667C32.9735 36.1177 32.75 35.6982 32.3773 35.4479C31.8769 35.105 31.1768 34.3632 31.1768 33.8714C31.1768 33.3337 31.9717 32.5672 32.3773 32.2948C32.75 32.0445 32.9735 31.625 32.9735 31.1761V28.4805H35.22C35.6684 28.4805 36.0875 28.2574 36.3378 27.8853C36.5882 27.5134 36.6373 27.0412 36.4686 26.6257L32.9735 18.0201V16.4863C32.9735 7.39576 25.5779 0 16.4873 0C7.39673 0 0.000976562 7.39576 0.000976562 16.4863ZM2.6962 16.4863C2.6962 8.88195 8.88284 2.69531 16.4873 2.69531C24.0918 2.69531 30.2782 8.88195 30.2782 16.4863V18.2833C30.2782 18.4571 30.3118 18.6293 30.3773 18.7904L33.2181 25.7852H31.6259C30.8816 25.7852 30.2782 26.3885 30.2782 27.1328V30.523C29.5625 31.1503 28.4814 32.3497 28.4814 33.8713C28.4814 35.3929 29.5625 36.5923 30.2782 37.2196V39.2621H24.079C23.3347 39.2621 22.7314 39.8655 22.7314 40.6097V43.3045H8.71546V33.8711C8.71546 31.6156 7.604 30.0103 6.42723 28.3108C4.76503 25.9101 2.6962 22.9223 2.6962 16.4863Z" fill="#005A2A"/>
<path d="M43.2396 27.9675C43.9303 27.6899 44.7152 28.0246 44.9927 28.7153C45.6611 30.3779 46 32.1303 46 33.9236C46 35.7169 45.6611 37.4693 44.9927 39.1319C44.7812 39.6578 44.2759 39.9772 43.7418 39.9772C43.5744 39.9772 43.4043 39.9459 43.2396 39.8797C42.5491 39.6021 42.2142 38.8172 42.4917 38.1266C43.0312 36.785 43.3046 35.371 43.3046 33.9236C43.3046 32.4763 43.0312 31.0622 42.4917 29.7205C42.2142 29.03 42.549 28.2451 43.2396 27.9675Z" fill="#005A2A"/>
<path d="M38.2379 29.9779C38.9285 29.7003 39.7133 30.0351 39.991 30.7257C40.4012 31.7464 40.6093 32.8224 40.6093 33.9236C40.6093 35.0248 40.4013 36.1008 39.991 37.1215C39.7796 37.6474 39.2742 37.967 38.7401 37.967C38.5728 37.967 38.4026 37.9356 38.2379 37.8694C37.5472 37.5918 37.2125 36.8069 37.4901 36.1164C37.7714 35.4167 37.914 34.6789 37.914 33.9236C37.914 33.1684 37.7714 32.4306 37.4901 31.7309C37.2125 31.0403 37.5473 30.2554 38.2379 29.9779Z" fill="#005A2A"/>
</svg>
