<svg width="46" height="46" viewBox="0 0 46 46" fill="none" xmlns="http://www.w3.org/2000/svg">
<g clip-path="url(#clip0)">
<path d="M8.01775 45.6049C8.54397 46.1312 9.3973 46.1312 9.92361 45.6049C10.4499 45.0787 10.4499 44.2253 9.92361 43.699L8.97063 42.746L16.0637 35.653L18.9225 38.5118C19.4488 39.0381 20.3021 39.0382 20.8284 38.5118C21.3548 37.9855 21.3547 37.1323 20.8284 36.6059C20.3029 36.0804 20.3029 35.2255 20.8282 34.7003L36.0811 19.4532C36.3339 19.2005 36.476 18.8577 36.476 18.5001V15.2453L37.9813 13.7354C39.2498 12.467 39.4765 10.6046 38.772 9.13289L45.6047 2.3001C46.131 1.77379 46.131 0.920545 45.6047 0.39424C45.0785 -0.132064 44.2251 -0.132064 43.6988 0.39424L36.8644 7.22874C35.362 6.51287 33.5062 6.77512 32.2651 8.01632L30.7539 9.52299H27.499C27.1415 9.52299 26.7986 9.66504 26.546 9.91795L11.2992 25.1706C10.7736 25.6962 9.91885 25.696 9.39326 25.1706C8.86705 24.6443 8.01371 24.6443 7.48741 25.1706C6.9611 25.6968 6.9611 26.5502 7.48741 27.0765L10.3462 29.9353L3.25307 37.0284L2.3001 36.0754C1.77397 35.5491 0.920635 35.5491 0.39424 36.0754C-0.132064 36.6016 -0.132064 37.455 0.39424 37.9813C1.41864 39.0057 7.361 44.9481 8.01775 45.6049ZM36.0755 9.9237C36.599 10.4472 36.6059 11.2991 36.074 11.831L35.1269 12.781L33.2181 10.8722L34.1696 9.9237C34.6952 9.3982 35.5501 9.39838 36.0755 9.9237ZM28.0574 12.2183H30.7526L33.7808 15.2466V17.9418L33.2195 18.503L32.2638 17.5473C31.7376 17.021 30.8842 17.021 30.3579 17.5473C29.8316 18.0736 29.8316 18.9269 30.3579 19.4532L31.3132 20.4085L29.4069 22.3141L28.452 21.359C27.9258 20.8328 27.0724 20.8327 26.5461 21.359C26.0198 21.8853 26.0198 22.7386 26.5461 23.2649L27.5007 24.2195L25.5945 26.125L24.6402 25.1706C24.114 24.6444 23.2606 24.6443 22.7343 25.1706C22.208 25.6969 22.208 26.5502 22.7343 27.0765L23.6882 28.0304L21.782 29.9359L16.0633 24.2171L28.0574 12.2183ZM13.2052 27.0763L14.1579 26.1234L19.8759 31.8414L18.9227 32.7941C18.593 33.1238 18.3272 33.5005 18.1316 33.909C16.7463 32.5237 13.411 29.1884 12.0902 27.8676C12.4987 27.672 12.8754 27.4062 13.2052 27.0763ZM12.2521 31.8413L14.1579 33.7471L7.06487 40.8402L5.15901 38.9343L12.2521 31.8413Z" fill="#005A2A"/>
</g>
<defs>
<clipPath id="clip0">
<rect width="46" height="46" fill="white"/>
</clipPath>
</defs>
</svg>
