<svg width="100" height="27" viewBox="0 0 100 27" fill="none" xmlns="http://www.w3.org/2000/svg">
<g clip-path="url(#clip0)">
<path fill-rule="evenodd" clip-rule="evenodd" d="M2.86804 10.1288C3.21604 9.43794 3.63542 8.65527 4.47928 8.88344C4.89484 8.99562 5.21097 9.70181 4.42574 10.1365C3.56531 10.6107 3.40215 9.8535 2.66791 11.2085C2.66664 11.2123 2.84255 10.7777 2.29315 10.2359C-0.642518 7.34231 2.62202 5.82795 2.79156 9.1932C2.79921 9.35509 2.73802 9.96567 2.86677 10.1301L2.86804 10.1288ZM11.0989 13.6483C11.0772 13.5757 11.0555 13.5056 11.0339 13.438V13.4316V13.4354C10.9089 13.0428 10.7827 12.7216 10.682 12.5176C10.5864 12.3252 10.357 12.4412 10.4717 12.6808C10.6706 12.988 10.8439 13.3692 10.9816 13.7911C10.7942 14.7892 10.4016 14.3507 9.86877 15.011C9.33211 15.6764 9.86494 16.1863 10.2729 16.1353C11.1014 16.032 11.1881 15.1907 11.2455 14.4552C11.4188 14.5546 11.5845 15.1155 11.6495 15.2557C13.0122 18.1646 15.3475 15.6509 11.7133 14.1557C11.3436 14.004 11.1741 13.8013 11.0976 13.6496L11.0989 13.6483ZM1.42634 22.9563C1.67746 23.0659 1.78199 23.2087 1.91073 23.3361C2.05733 23.4827 2.23451 23.6102 2.69978 23.6446C2.70106 23.6446 1.77561 24.0347 1.37535 24.18C0.373429 24.5446 -0.0829188 24.1507 0.0152341 23.5516C0.107013 22.9869 0.537867 22.5675 1.42762 22.955L1.42634 22.9563ZM3.93753 23.3298C3.04013 23.2864 2.01016 23.2112 1.85465 22.2067C1.77816 21.7122 2.37855 21.0429 3.20967 21.6726C4.11981 22.3623 3.24153 23.0136 5.02741 23.1526C5.03123 23.1526 4.63735 23.0493 4.32122 23.8881C2.63477 28.37 -0.515046 25.6192 2.97767 23.8511C3.14466 23.7657 3.8228 23.5439 3.93753 23.3285V23.3298ZM6.83878 22.5892C5.96815 22.8084 4.96112 23.0353 4.52007 22.1201C4.30337 21.6688 4.68323 20.8556 5.66094 21.2163C6.73042 21.6115 6.08032 22.4885 7.82923 22.1048C7.83305 22.1035 7.42642 22.1188 7.36778 23.0136C7.0542 27.79 3.24536 26.0717 6.07267 23.368C6.20779 23.238 6.79161 22.8288 6.83878 22.5904V22.5892ZM9.00451 20.8606C8.26263 21.3667 7.39582 21.9263 6.66669 21.2188C6.30722 20.8708 6.3837 19.9747 7.42642 19.9773C8.56729 19.9798 8.25881 21.0276 9.76807 20.064C9.77189 20.0614 9.39458 20.2169 9.64824 21.0761C11.0007 25.6676 6.8324 25.368 8.55454 21.8549C8.63739 21.6867 9.04403 21.1016 9.00579 20.8606H9.00451ZM10.5622 19.0429C10.0345 19.5579 9.41497 20.1341 8.72408 19.6675C8.38373 19.4368 8.31744 18.7026 9.16003 18.5547C10.0829 18.3928 10.1122 19.011 11.1945 18.0168C11.197 18.0142 10.7853 18.4667 11.1129 19.1258C12.8631 22.644 9.45066 22.9983 10.3404 19.9123C10.3838 19.7644 10.6285 19.2328 10.5622 19.0442V19.0429ZM11.4316 16.6681C11.1001 17.3271 10.7012 18.0729 9.89554 17.8561C9.4991 17.7491 9.19827 17.0748 9.94653 16.6617C10.7662 16.2092 10.9217 16.932 11.6215 15.6407C11.6228 15.6381 11.4545 16.0512 11.9784 16.5674C14.7764 19.3259 11.6648 20.7701 11.503 17.5617C11.4953 17.4075 11.5539 16.8262 11.4316 16.6681ZM3.21731 13.2978C3.23898 13.373 3.26193 13.4469 3.28487 13.5183V13.5259V13.5221C3.41489 13.9339 3.54747 14.2717 3.65327 14.4845C3.75269 14.6872 3.99489 14.5648 3.87379 14.3137C3.66474 13.9912 3.48245 13.5922 3.33841 13.1499C3.53599 12.1034 3.94645 12.5635 4.50605 11.8701C5.06947 11.1716 4.50987 10.6374 4.08284 10.6897C3.21476 10.7981 3.12299 11.6814 3.0618 12.4526C2.87952 12.3481 2.70615 11.7605 2.63732 11.6139C1.20837 8.56221 -1.24163 11.1996 2.56976 12.7688C2.95855 12.9281 3.13446 13.1397 3.21604 13.299L3.21731 13.2978ZM13.364 3.53347C13.1002 3.41874 12.9905 3.26833 12.8567 3.13448C12.7025 2.98024 12.5163 2.84767 12.0294 2.81071C12.0281 2.81071 12.9982 2.40152 13.4188 2.24856C14.4705 1.86614 14.9485 2.27915 14.8465 2.90758C14.7496 3.49905 14.2984 3.9401 13.364 3.53219V3.53347ZM10.7292 3.14213C11.6712 3.18675 12.7509 3.26578 12.9153 4.31997C12.9956 4.83878 12.3659 5.54114 11.494 4.87957C10.5393 4.1568 11.4596 3.47356 9.58706 3.32697C9.58196 3.32697 9.99624 3.43532 10.3277 2.55449C12.097 -2.14793 15.3997 0.738023 11.7362 2.59401C11.5603 2.68324 10.8503 2.91651 10.7292 3.14213ZM7.68518 3.91971C8.59915 3.68898 9.65462 3.45189 10.1173 4.41175C10.3455 4.88467 9.94525 5.73872 8.92038 5.36013C7.79736 4.94585 8.48061 4.02551 6.64629 4.42832C6.64119 4.42959 7.0695 4.41302 7.13068 3.47483C7.45956 -1.53479 11.4558 0.266379 8.48953 3.10389C8.34676 3.24029 7.7349 3.66859 7.68518 3.91971ZM5.41365 5.73362C6.1925 5.20207 7.10137 4.6157 7.86619 5.35758C8.24351 5.72343 8.16193 6.66162 7.0695 6.66034C5.87254 6.65779 6.19632 5.55899 4.61313 6.56856C4.6093 6.57111 5.00446 6.40922 4.73932 5.50673C3.32057 0.690858 7.69283 1.00444 5.88656 4.68963C5.79988 4.86682 5.37285 5.47996 5.41365 5.73235V5.73362ZM3.77946 7.6406C4.33269 7.10012 4.98279 6.4959 5.7081 6.98539C6.06502 7.22631 6.13386 7.99752 5.25048 8.15176C4.28297 8.32129 4.25111 7.67374 3.11661 8.71645C3.11406 8.719 3.54619 8.24354 3.20202 7.55392C1.36516 3.86362 4.94583 3.4914 4.01274 6.72918C3.96812 6.88469 3.71063 7.44174 3.77946 7.6406Z" fill="white"/>
<path d="M61.2219 9.38319C60.8408 8.53806 60.6904 8.41568 60.2264 8.32008C60.1168 8.29331 59.9944 8.27929 59.9128 8.27929C59.7637 8.25252 59.6948 8.19771 59.6948 8.12887C59.6948 8.03327 59.8044 8.0065 59.9816 8.0065C60.7184 8.0065 61.5087 8.04729 62.0543 8.04729C62.5311 8.04729 63.2679 8.0065 64.331 8.0065C64.5362 8.0065 64.6445 8.06131 64.6445 8.14289C64.6445 8.22448 64.563 8.27929 64.4393 8.27929C64.2761 8.29331 64.1933 8.29331 64.0709 8.32008C63.7165 8.37489 63.6617 8.52403 63.6617 8.6617C63.6617 8.83889 63.7433 9.11168 63.9753 9.69804C64.6165 11.3615 65.4757 13.3934 66.0888 14.9894C66.6484 13.7351 68.0659 10.394 68.5158 9.11168C68.5834 8.96126 68.6255 8.78407 68.6255 8.6617C68.6255 8.48452 68.5439 8.38891 68.2979 8.34812C68.1347 8.30733 67.9027 8.29331 67.7523 8.27929C67.5751 8.26654 67.5063 8.22448 67.5063 8.14289C67.5063 8.06131 67.5738 8.0065 67.8058 8.0065C68.7058 8.0065 69.3737 8.04729 69.579 8.04729C69.7829 8.04729 70.6701 8.0065 71.092 8.0065C71.2973 8.0065 71.3929 8.04729 71.3929 8.14289C71.3929 8.2385 71.324 8.27929 71.1469 8.27929C70.9837 8.29331 70.7644 8.29331 70.5465 8.40166C70.2609 8.53806 70.0697 8.82487 69.6873 9.62921C69.1417 10.8019 68.651 11.9071 67.8734 13.6382C67.0002 15.5745 66.4138 16.8148 66.0595 17.5248C65.6643 18.3291 65.5279 18.5063 65.3507 18.5063C65.1595 18.5063 65.0499 18.3151 64.7911 17.6879L61.2181 9.38319H61.2219Z" fill="white"/>
<path d="M36.4364 14.5916C36.518 14.5916 36.518 14.5509 36.504 14.5241L35.3044 11.6063C35.2637 11.5107 35.2356 11.5387 35.2088 11.6063L34.0501 14.5241C34.0374 14.5649 34.0641 14.5916 34.1049 14.5916H36.4364ZM33.7098 15.6828C33.6409 15.6828 33.6142 15.7096 33.5874 15.7784L33.1655 16.8963C33.0291 17.2507 32.9475 17.6051 32.9475 17.7695C32.9475 18.0283 33.0699 18.1519 33.3567 18.1787C33.5058 18.2055 33.7251 18.2195 33.8334 18.2335C34.0387 18.2335 34.0794 18.3011 34.0794 18.3699C34.0794 18.4795 33.9698 18.5063 33.7939 18.5063C33.1808 18.5063 32.7168 18.4655 31.994 18.4655C31.8436 18.4655 30.9437 18.5063 30.2617 18.5063C30.0705 18.5063 29.9889 18.4515 29.9889 18.3699C29.9889 18.2603 30.0845 18.2335 30.2477 18.2335C30.4108 18.2195 30.5485 18.2055 30.6836 18.1787C31.1604 18.0831 31.4331 17.6599 31.72 17.006L35.3605 8.77003C35.6193 8.18366 35.7697 7.97971 35.9201 7.97971C36.0565 7.97971 36.1789 8.17091 36.4109 8.66168C36.7653 9.42523 39.0559 14.6477 39.9839 16.7204C40.4479 17.7835 40.7475 18.1111 41.2242 18.18C41.3746 18.2208 41.5378 18.2208 41.6602 18.2348C41.8374 18.2348 41.9189 18.2896 41.9189 18.3712C41.9189 18.4668 41.8233 18.5076 41.5646 18.5076C40.2287 18.5076 38.6735 18.4808 37.8016 18.4668C37.5836 18.4668 37.5008 18.426 37.5008 18.3444C37.5008 18.2628 37.5683 18.208 37.692 18.1812C37.8424 18.1545 37.8959 18.0589 37.8551 17.9352L36.9412 15.7669C36.9272 15.7121 36.8736 15.6853 36.8316 15.6853H33.7085L33.7098 15.6828Z" fill="white"/>
<path d="M50.7106 14.5241C50.7106 15.9008 50.6698 16.8836 50.9018 17.1691C51.093 17.4279 51.3518 17.4967 52.4837 17.4967C53.2333 17.4967 53.6705 17.4827 54.0516 17.2787C54.3792 17.1283 54.6112 16.7739 54.7604 16.1328C54.8012 15.9824 54.8292 15.874 54.9376 15.874C55.0332 15.874 55.0472 15.9428 55.0472 16.1328C55.0472 16.4463 54.8968 17.7415 54.7604 18.1379C54.6508 18.4923 54.5424 18.5063 53.9968 18.5063C52.1153 18.5063 50.847 18.4247 49.4015 18.4247C48.7603 18.4247 48.0248 18.4655 47.274 18.4655C47.0828 18.4655 46.9744 18.4387 46.9744 18.3151C46.9744 18.2335 47.056 18.1927 47.2472 18.1927C47.4104 18.1787 47.5608 18.1647 47.7112 18.1379C48.202 18.0563 48.216 17.8103 48.2568 16.7191C48.2836 16.1736 48.2976 15.3552 48.2976 14.5101V12.1098C48.2976 9.88667 48.2848 9.64193 48.2568 9.2047C48.23 8.82356 48.1344 8.59156 47.7928 8.49596C47.6691 8.45517 47.4652 8.44115 47.26 8.4284C47.1108 8.4284 46.9744 8.40163 46.9744 8.292C46.9744 8.18238 47.1108 8.15561 47.3836 8.15561C48.1612 8.15561 48.8699 8.1964 49.4015 8.1964C49.5239 8.1964 51.2154 8.15561 51.7062 8.15561C51.9522 8.15561 52.0338 8.1964 52.0338 8.27798C52.0338 8.40035 51.8974 8.4284 51.7062 8.4284C51.5698 8.44242 51.4334 8.44242 51.2422 8.48321C50.8738 8.55077 50.7782 8.81081 50.7514 9.28756C50.7246 9.72351 50.7106 9.9963 50.7106 12.2462V14.5228V14.5241Z" fill="white"/>
<path d="M93.9043 18.1239C93.6723 18.0283 93.6035 17.8511 93.6035 17.5783C93.6035 16.4731 93.6442 15.9556 93.685 15.5732C93.7131 15.3272 93.7666 15.2456 93.8482 15.2456C93.9438 15.2456 93.9578 15.368 93.9706 15.4776C93.9846 15.614 93.9973 15.7363 94.0394 15.9008C94.2714 17.0187 95.2937 17.6599 96.3568 17.6599C97.6519 17.6599 98.0484 16.9919 98.0484 16.4056C98.0484 15.8332 97.9387 15.3552 96.78 14.5649L95.9349 13.9785C94.2714 12.8058 93.8074 11.851 93.8074 10.6515C93.8074 9.08362 95.1025 7.81528 97.2848 7.81528C97.8712 7.81528 98.2804 7.84332 98.8527 7.95167C99.0707 7.99246 99.3027 8.04727 99.5207 8.11483C99.6571 8.15563 99.6978 8.19642 99.6978 8.30604C99.6711 8.74199 99.643 9.01478 99.643 10.2283C99.643 10.4743 99.6022 10.5687 99.4926 10.5687C99.4251 10.5687 99.3702 10.5279 99.3422 10.3099C99.3295 10.1735 99.2874 9.83315 99.0962 9.51957C98.8374 9.08362 98.2103 8.61962 97.2275 8.61962C96.1095 8.61962 95.7004 9.24678 95.7004 9.87394C95.7004 10.3379 95.8635 10.8695 96.7915 11.4966L97.4875 11.9606C99.3957 13.229 99.9961 14.0741 99.9961 15.4521C99.9961 16.3928 99.5729 17.3195 98.5506 17.9199C97.759 18.3967 96.8871 18.5063 96.1784 18.5063C95.1561 18.5063 94.4333 18.3699 93.9017 18.1239H93.9043Z" fill="white"/>
<path d="M18.8466 18.1239C18.6146 18.0283 18.5471 17.8511 18.5471 17.5783C18.5471 16.4731 18.5878 15.9556 18.6286 15.5732C18.6554 15.3272 18.7102 15.2456 18.7918 15.2456C18.8874 15.2456 18.9014 15.368 18.9142 15.4776C18.9282 15.614 18.9409 15.7363 18.9817 15.9008C19.2137 17.0187 20.2361 17.6599 21.3004 17.6599C22.5955 17.6599 22.9907 16.9919 22.9907 16.4056C22.9907 15.8332 22.8811 15.3552 21.7224 14.5649L20.8772 13.9785C19.2137 12.8058 18.7497 11.851 18.7497 10.6515C18.7497 9.08362 20.0448 7.81528 22.2272 7.81528C22.8135 7.81528 23.2227 7.84332 23.7951 7.95167C24.013 7.99246 24.245 8.04727 24.463 8.11483C24.5994 8.15563 24.6402 8.19642 24.6402 8.30604C24.6134 8.74199 24.5854 9.01478 24.5854 10.2283C24.5854 10.4743 24.5446 10.5687 24.435 10.5687C24.3674 10.5687 24.3126 10.5279 24.2845 10.3099C24.2705 10.1735 24.2297 9.83315 24.0385 9.51957C23.7798 9.08362 23.1526 8.61962 22.1711 8.61962C21.0531 8.61962 20.644 9.24678 20.644 9.87394C20.644 10.3379 20.8071 10.8695 21.7351 11.4966L22.4311 11.9606C24.3406 13.229 24.9397 14.0741 24.9397 15.4521C24.9397 16.3928 24.5165 17.3195 23.4942 17.9199C22.7039 18.3967 21.8307 18.5063 21.122 18.5063C20.0997 18.5063 19.3769 18.3699 18.8441 18.1239H18.8466Z" fill="white"/>
<path d="M79.8748 14.0053C79.8748 15.8868 80.1616 16.6784 80.9111 17.2099C81.4695 17.5783 81.9335 17.5923 82.2751 17.5923C82.711 17.5923 83.2974 17.4967 83.7754 17.0876C84.539 16.4324 84.539 15.0008 84.539 13.5974V11.9607C84.539 9.95553 84.539 9.60116 84.5109 9.16521C84.4842 8.64767 84.3745 8.41568 83.9246 8.33409C83.7742 8.30733 83.6926 8.30733 83.4198 8.27928C83.2426 8.27928 83.1738 8.22447 83.1738 8.14289C83.1738 8.06131 83.2426 8.00649 83.4873 8.00649C84.2649 8.00649 85.096 8.04728 85.314 8.04728C85.5588 8.04728 86.446 8.00649 87.1139 8.00649C87.3191 8.00649 87.3994 8.04728 87.3994 8.14289C87.3994 8.21045 87.3446 8.26526 87.1674 8.27928C87.017 8.2933 86.9354 8.2933 86.7442 8.33409C86.3758 8.40165 86.2675 8.60688 86.2254 9.16521C86.1987 9.60116 86.1846 9.95553 86.1846 11.9607V13.2966C86.1846 14.8517 86.1158 16.528 84.7939 17.6064C83.9488 18.3151 82.8844 18.5063 81.9577 18.5063C80.7582 18.5063 79.5587 18.3291 78.7123 17.5923C77.9895 16.9919 77.4439 15.9964 77.4439 14.0333V11.9607C77.4439 9.84718 77.4439 9.46477 77.4031 9.02881C77.3764 8.6464 77.2948 8.46921 76.9799 8.37361C76.8295 8.3188 76.5159 8.29203 76.3936 8.27801C76.1896 8.26399 76.1068 8.21045 76.1068 8.12759C76.1068 8.04601 76.2164 8.00522 76.4751 8.00522C77.0615 8.00522 78.4395 8.04601 78.5619 8.04601C78.6715 8.04601 80.2942 8.00522 80.785 8.00522C81.017 8.00522 81.0845 8.04601 81.0845 8.12759C81.0845 8.23722 81.0169 8.26399 80.8385 8.27801C80.7161 8.29203 80.5249 8.30605 80.3885 8.33282C80.0061 8.4144 79.9385 8.70121 79.9118 9.13716C79.8837 9.57312 79.871 10.2143 79.871 11.9594V14.0053H79.8748Z" fill="white"/>
</g>
<defs>
<clipPath id="clip0">
<rect width="100" height="26.3203" fill="white"/>
</clipPath>
</defs>
</svg>
