<svg width="50" height="89" viewBox="0 0 50 89" fill="none" xmlns="http://www.w3.org/2000/svg">
<path fill-rule="evenodd" clip-rule="evenodd" d="M9.64426 34.0779C10.8154 31.7528 12.2267 29.1189 15.0665 29.8868C16.4649 30.2643 17.5288 32.6408 14.8863 34.1036C11.9907 35.6994 11.4417 33.1513 8.97077 37.7112C8.96648 37.7241 9.55847 36.2613 7.7096 34.4382C-2.16962 24.7005 8.81634 19.6044 9.38688 30.9292C9.41261 31.474 9.20671 33.5288 9.63997 34.0821L9.64426 34.0779ZM37.343 45.9218C37.27 45.6772 37.1971 45.4413 37.1242 45.214V45.1925V45.2054C36.7038 43.8842 36.2791 42.8031 35.9402 42.1168C35.6185 41.469 34.8463 41.8594 35.2324 42.6659C35.9016 43.6997 36.485 44.9823 36.9483 46.4022C36.3177 49.7611 34.9965 48.2854 33.2034 50.5075C31.3974 52.7467 33.1905 54.4626 34.5632 54.291C37.3515 53.9435 37.6432 51.1123 37.8363 48.6372C38.4197 48.9718 38.9773 50.8592 39.1961 51.3311C43.7818 61.1202 51.6406 52.6609 39.4106 47.6291C38.1666 47.1186 37.5961 46.4365 37.3387 45.9261L37.343 45.9218ZM4.79259 77.2453C5.63766 77.6142 5.98942 78.0947 6.42268 78.5236C6.916 79.0169 7.51227 79.4459 9.07802 79.5617C9.08231 79.5617 5.96797 80.8744 4.621 81.3634C1.24928 82.5903 -0.286436 81.2647 0.0438721 79.2486C0.352732 77.3482 1.80266 75.9369 4.79688 77.241L4.79259 77.2453ZM13.2433 78.5022C10.2234 78.3563 6.75728 78.1032 6.23393 74.7229C5.97655 73.0585 7.99701 70.8064 10.7939 72.9255C13.8568 75.2463 10.9011 77.4383 16.911 77.9059C16.9239 77.9059 15.5984 77.5584 14.5345 80.3811C8.85924 95.4637 -1.74065 86.2065 10.0132 80.2567C10.5751 79.9692 12.8573 79.2228 13.2433 78.4979V78.5022ZM23.0067 76.0098C20.0769 76.7477 16.688 77.5112 15.2037 74.4312C14.4745 72.9127 15.7528 70.1758 19.043 71.3898C22.6421 72.7196 20.4543 75.671 26.3398 74.3798C26.3527 74.3755 24.9843 74.4269 24.787 77.4383C23.7317 93.5119 10.914 87.7293 20.4286 78.6309C20.8833 78.1933 22.848 76.8163 23.0067 76.0141V76.0098ZM30.295 70.193C27.7983 71.896 24.8813 73.7792 22.4276 71.3984C21.2179 70.2273 21.4753 67.2116 24.9843 67.2202C28.8236 67.2288 27.7855 70.7549 32.8645 67.5119C32.8774 67.5033 31.6076 68.0267 32.4613 70.9179C37.0126 86.3695 22.9853 85.3614 28.7807 73.539C29.0595 72.9727 30.4279 71.0037 30.2992 70.193H30.295ZM35.537 64.0759C33.761 65.8089 31.6762 67.7478 29.3512 66.1778C28.2059 65.4014 27.9828 62.9305 30.8183 62.4329C33.9241 61.8881 34.0227 63.9686 37.6647 60.6226C37.6733 60.614 36.2877 62.1369 37.3901 64.3547C43.2799 76.1943 31.7964 77.3868 34.7906 67.0014C34.9364 66.5038 35.7601 64.715 35.537 64.0801V64.0759ZM38.4626 56.0841C37.3473 58.3019 36.0046 60.8114 33.2935 60.0821C31.9594 59.7218 30.947 57.4525 33.4651 56.0627C36.2233 54.5398 36.7467 56.9721 39.1017 52.6266C39.106 52.618 38.5398 54.0079 40.3029 55.7452C49.7188 65.0282 39.2476 69.8884 38.7028 59.0912C38.6771 58.5721 38.8744 56.616 38.4626 56.0841ZM10.8196 44.7421C10.8926 44.9952 10.9698 45.244 11.047 45.4842V45.51V45.4971C11.4845 46.8827 11.9307 48.0194 12.2867 48.7358C12.6213 49.4179 13.4364 49.0061 13.0288 48.161C12.3253 47.0757 11.7119 45.733 11.2272 44.2445C11.8921 40.7226 13.2734 42.2712 15.1565 39.9376C17.0526 37.5868 15.1694 35.7895 13.7324 35.9653C10.8111 36.33 10.5022 39.3027 10.2963 41.898C9.68287 41.5463 9.09947 39.5687 8.86782 39.0754C4.05905 28.8058 -4.18579 37.6812 8.64046 42.9619C9.94883 43.4981 10.5408 44.2102 10.8154 44.7464L10.8196 44.7421ZM44.9658 11.8829C44.0778 11.4968 43.7089 10.9906 43.2585 10.5402C42.7394 10.0211 42.1131 9.57499 40.4745 9.45059C40.4702 9.45059 43.7346 8.07359 45.1502 7.55882C48.6893 6.27191 50.2979 7.66178 49.9547 9.77661C49.6287 11.767 48.1101 13.2513 44.9658 11.8786V11.8829ZM36.0989 10.5659C39.269 10.7161 42.9024 10.982 43.4558 14.5296C43.7261 16.2755 41.6069 18.6392 38.6728 16.4128C35.4598 13.9805 38.5569 11.6812 32.2554 11.1879C32.2382 11.1879 33.6324 11.5526 34.7477 8.58836C40.7018 -7.23641 51.8165 2.47551 39.4878 8.72134C38.8958 9.02162 36.5065 9.80664 36.0989 10.5659ZM25.8551 13.1826C28.9308 12.4062 32.4827 11.6083 34.0399 14.8385C34.8077 16.43 33.4608 19.3041 30.0118 18.03C26.2326 16.6359 28.5319 13.5387 22.359 14.8942C22.3418 14.8985 23.7832 14.8428 23.9891 11.6855C25.0958 -5.17305 38.5441 0.888315 28.5619 10.4372C28.0815 10.8962 26.0224 12.3376 25.8551 13.1826ZM18.2108 19.2869C20.8318 17.4981 23.8904 15.5248 26.4642 18.0214C27.734 19.2526 27.4595 22.4098 23.7832 22.4055C19.7551 22.397 20.8447 18.6992 15.5169 22.0967C15.504 22.1053 16.8338 21.5605 15.9416 18.5233C11.1671 2.31679 25.8808 3.37206 19.8023 15.7736C19.5106 16.3699 18.0736 18.4333 18.2108 19.2826V19.2869ZM12.7114 25.7043C14.5731 23.8855 16.7609 21.8522 19.2017 23.4994C20.4029 24.3102 20.6345 26.9054 17.6617 27.4245C14.4058 27.995 14.2986 25.8159 10.4808 29.3249C10.4722 29.3334 11.9264 27.7334 10.7682 25.4126C4.58668 12.9939 16.6365 11.7413 13.4964 22.6372C13.3463 23.1605 12.4798 25.0351 12.7114 25.7043Z" fill="white"/>
</svg>
