<svg width="200" height="53" viewBox="0 0 200 53" fill="none" xmlns="http://www.w3.org/2000/svg">
<path fill-rule="evenodd" clip-rule="evenodd" d="M5.73204 20.2541C6.42808 18.8722 7.26689 17.3068 8.95471 17.7631C9.78588 17.9875 10.4182 19.4 8.84763 20.2694C7.12666 21.2178 6.80032 19.7034 5.33176 22.4136C5.32921 22.4212 5.68105 21.5518 4.58218 20.4683C-1.28951 14.6807 5.23997 11.6518 5.57907 18.3827C5.59436 18.7065 5.47198 19.9277 5.72949 20.2566L5.73204 20.2541ZM22.1947 27.2935C22.1513 27.1482 22.108 27.0079 22.0647 26.8728V26.8601V26.8677C21.8148 26.0824 21.5624 25.4399 21.361 25.032C21.1698 24.647 20.7108 24.879 20.9403 25.3583C21.338 25.9728 21.6848 26.7351 21.9601 27.579C21.5853 29.5754 20.8001 28.6983 19.7343 30.019C18.661 31.3499 19.7267 32.3697 20.5426 32.2677C22.1998 32.0612 22.3732 30.3785 22.4879 28.9074C22.8346 29.1062 23.1661 30.2281 23.2961 30.5085C26.0216 36.3267 30.6924 31.2989 23.4236 28.3082C22.6842 28.0048 22.3451 27.5994 22.1921 27.296L22.1947 27.2935ZM2.84846 45.9105C3.35073 46.1298 3.5598 46.4153 3.8173 46.6703C4.11051 46.9635 4.4649 47.2185 5.3955 47.2873C5.39805 47.2873 3.54705 48.0675 2.74648 48.3581C0.742508 49.0873 -0.170243 48.2995 0.0260753 47.1012C0.209645 45.9717 1.0714 45.1329 2.85101 45.908L2.84846 45.9105ZM7.87114 46.6576C6.07623 46.5709 4.01617 46.4204 3.70512 44.4114C3.55215 43.4221 4.753 42.0836 6.41533 43.3431C8.23573 44.7224 6.47907 46.0253 10.051 46.3032C10.0587 46.3032 9.27086 46.0966 8.63856 47.7743C5.26547 56.7386 -1.03455 51.2366 5.9513 47.7003C6.2853 47.5295 7.64168 47.0859 7.87114 46.655V46.6576ZM13.674 45.1763C11.9326 45.6148 9.91845 46.0686 9.0363 44.238C8.60287 43.3355 9.36265 41.7088 11.3182 42.4304C13.4573 43.2207 12.157 44.9748 15.655 44.2074C15.6627 44.2049 14.8493 44.2355 14.7321 46.0253C14.1049 55.5785 6.48672 52.1417 12.1417 46.734C12.4119 46.474 13.5797 45.6556 13.674 45.1788V45.1763ZM18.0057 41.719C16.5219 42.7312 14.7882 43.8505 13.3298 42.4355C12.6108 41.7394 12.7638 39.9471 14.8493 39.9522C17.1312 39.9573 16.5142 42.053 19.5329 40.1255C19.5406 40.1204 18.7859 40.4315 19.2933 42.1499C21.9984 51.3335 13.6612 50.7343 17.1057 43.7077C17.2714 43.3711 18.0848 42.2009 18.0083 41.719H18.0057ZM21.1213 38.0833C20.0658 39.1133 18.8267 40.2658 17.4448 39.3326C16.7641 38.8711 16.6315 37.4026 18.3168 37.1068C20.1627 36.783 20.2213 38.0196 22.3859 36.0309C22.391 36.0258 21.5675 36.9309 22.2227 38.249C25.7233 45.2859 18.8981 45.9947 20.6777 39.8221C20.7644 39.5264 21.2539 38.4632 21.1213 38.0859V38.0833ZM22.8601 33.3334C22.1972 34.6516 21.3992 36.1431 19.7879 35.7097C18.995 35.4955 18.3933 34.1468 19.8899 33.3207C21.5292 32.4156 21.8403 33.8612 23.24 31.2785C23.2426 31.2734 22.906 32.0994 23.9539 33.132C29.5502 38.6493 23.3267 41.538 23.0029 35.1207C22.9876 34.8122 23.1049 33.6496 22.8601 33.3334ZM6.43063 26.5923C6.47397 26.7428 6.51986 26.8906 6.56575 27.0334V27.0487V27.0411C6.82581 27.8646 7.09097 28.5402 7.30258 28.966C7.50145 29.3714 7.98587 29.1266 7.74366 28.6244C7.32553 27.9793 6.96094 27.1813 6.67284 26.2966C7.06802 24.2034 7.88899 25.1238 9.00825 23.7368C10.1352 22.3396 9.0159 21.2714 8.16179 21.3759C6.42553 21.5926 6.24196 23.3595 6.11958 24.902C5.75499 24.6929 5.40824 23.5176 5.27057 23.2243C2.41248 17.1206 -2.48781 22.3957 5.13544 25.5343C5.91306 25.853 6.2649 26.2762 6.42808 26.5949L6.43063 26.5923ZM26.7253 7.06255C26.1975 6.83308 25.9783 6.53223 25.7106 6.26453C25.4021 5.95603 25.0298 5.69087 24.0559 5.61693C24.0533 5.61693 25.9936 4.79852 26.8349 4.49257C28.9383 3.72769 29.8944 4.55376 29.6905 5.8107C29.4967 6.99371 28.5941 7.87586 26.7253 7.06V7.06255ZM21.4553 6.27982C23.3395 6.36906 25.4989 6.52713 25.8278 8.63564C25.9885 9.67332 24.729 11.0781 22.9851 9.7549C21.0754 8.30929 22.9162 6.94272 19.1709 6.64951C19.1607 6.64951 19.9893 6.86623 20.6522 5.10447C24.191 -4.30094 30.797 1.47131 23.4695 5.1835C23.1176 5.36198 21.6975 5.82855 21.4553 6.27982ZM15.3669 7.83507C17.195 7.3736 19.306 6.89937 20.2315 8.81921C20.6879 9.7651 19.8873 11.4733 17.8375 10.7161C15.5913 9.88748 16.9578 8.04669 13.289 8.85235C13.2788 8.8549 14.1355 8.82176 14.2578 6.94527C14.9156 -3.07459 22.9086 0.527968 16.9757 6.20334C16.6901 6.47614 15.4663 7.3328 15.3669 7.83507ZM10.8236 11.4631C12.3814 10.3999 14.1992 9.22714 15.729 10.711C16.4836 11.4427 16.3205 13.3192 14.1355 13.3167C11.7414 13.3116 12.389 11.1138 9.22242 13.1331C9.21477 13.1382 10.0051 12.8144 9.47483 11.0093C6.63714 1.37698 15.3822 2.00418 11.7695 9.37502C11.5961 9.72941 10.742 10.9558 10.8236 11.4606V11.4631ZM7.55499 15.2773C8.66151 14.1963 9.9618 12.9878 11.4125 13.9668C12.1264 14.4487 12.2641 15.9912 10.4972 16.2997C8.56208 16.6388 8.49834 15.3436 6.22921 17.4291C6.22411 17.4342 7.08842 16.4833 6.40003 15.1039C2.72608 7.72289 9.88786 6.97841 8.02156 13.4543C7.93233 13.7654 7.41731 14.8796 7.55499 15.2773Z" fill="#41A152"/>
<path d="M122.447 18.7626C121.685 17.0722 121.384 16.8274 120.456 16.6362C120.236 16.5827 119.992 16.5546 119.828 16.5546C119.53 16.5011 119.392 16.3915 119.392 16.2538C119.392 16.0626 119.612 16.009 119.966 16.009C121.44 16.009 123.021 16.0906 124.112 16.0906C125.065 16.0906 126.539 16.009 128.665 16.009C129.076 16.009 129.293 16.1187 129.293 16.2818C129.293 16.445 129.129 16.5546 128.882 16.5546C128.556 16.5827 128.39 16.5827 128.145 16.6362C127.436 16.7459 127.327 17.0442 127.327 17.3195C127.327 17.6739 127.49 18.2195 127.954 19.3923C129.236 22.7195 130.955 26.7836 132.181 29.9756C133.3 27.4669 136.136 20.7844 137.036 18.2195C137.171 17.9187 137.255 17.5643 137.255 17.3195C137.255 16.9651 137.092 16.7739 136.6 16.6923C136.273 16.6107 135.809 16.5827 135.508 16.5546C135.154 16.5291 135.016 16.445 135.016 16.2818C135.016 16.1187 135.151 16.009 135.615 16.009C137.415 16.009 138.751 16.0906 139.162 16.0906C139.57 16.0906 141.344 16.009 142.188 16.009C142.599 16.009 142.79 16.0906 142.79 16.2818C142.79 16.4731 142.652 16.5546 142.298 16.5546C141.972 16.5827 141.533 16.5827 141.097 16.7994C140.526 17.0722 140.144 17.6459 139.379 19.2547C138.287 21.6003 137.306 23.8108 135.751 27.2731C134.004 31.1459 132.831 33.6266 132.123 35.0468C131.332 36.6555 131.059 37.0099 130.705 37.0099C130.323 37.0099 130.103 36.6275 129.586 35.3731L122.439 18.7626H122.447Z" fill="black"/>
<path d="M72.8728 29.1802C73.036 29.1802 73.036 29.0986 73.0079 29.045L70.6088 23.209C70.5272 23.0178 70.4711 23.0739 70.4176 23.209L68.1 29.045C68.0745 29.1266 68.128 29.1802 68.2096 29.1802H72.8728ZM67.4192 31.3626C67.2816 31.3626 67.228 31.4161 67.1745 31.5538L66.3306 33.7898C66.0578 34.4986 65.8946 35.2074 65.8946 35.5363C65.8946 36.0538 66.1394 36.3011 66.713 36.3547C67.0113 36.4082 67.4498 36.4363 67.6666 36.4643C68.077 36.4643 68.1586 36.5994 68.1586 36.7371C68.1586 36.9564 67.9394 37.0099 67.5875 37.0099C66.3612 37.0099 65.4331 36.9283 63.9875 36.9283C63.6867 36.9283 61.8866 37.0099 60.5226 37.0099C60.1402 37.0099 59.977 36.9003 59.977 36.7371C59.977 36.5179 60.1682 36.4643 60.4946 36.4643C60.8209 36.4363 61.0963 36.4082 61.3665 36.3547C62.3201 36.1635 62.8657 35.317 63.4393 34.0091L70.721 17.5362C71.2385 16.3634 71.5394 15.9555 71.8402 15.9555C72.113 15.9555 72.3578 16.3379 72.8218 17.3195C73.5306 18.8467 78.1122 29.2923 79.9683 33.438C80.8963 35.5643 81.4955 36.2196 82.449 36.3572C82.7499 36.4388 83.0762 36.4388 83.321 36.4669C83.6754 36.4669 83.8386 36.5765 83.8386 36.7397C83.8386 36.9309 83.6473 37.0125 83.1298 37.0125C80.4578 37.0125 77.3473 36.9589 75.6034 36.9309C75.1674 36.9309 75.0017 36.8493 75.0017 36.6861C75.0017 36.523 75.1368 36.4133 75.3841 36.3598C75.685 36.3062 75.7921 36.115 75.7105 35.8677L73.8824 31.5309C73.8544 31.4212 73.7473 31.3677 73.6632 31.3677H67.4167L67.4192 31.3626Z" fill="black"/>
<path d="M101.423 29.0451C101.423 31.7986 101.341 33.7643 101.805 34.3354C102.188 34.853 102.705 34.9907 104.97 34.9907C106.469 34.9907 107.343 34.9626 108.106 34.5547C108.761 34.2539 109.225 33.5451 109.523 32.2626C109.605 31.9618 109.661 31.7451 109.877 31.7451C110.069 31.7451 110.097 31.8827 110.097 32.2626C110.097 32.8898 109.796 35.4802 109.523 36.2731C109.304 36.9819 109.087 37.0099 107.996 37.0099C104.233 37.0099 101.696 36.8468 98.8046 36.8468C97.5222 36.8468 96.0511 36.9284 94.5494 36.9284C94.1669 36.9284 93.9502 36.8748 93.9502 36.6275C93.9502 36.4643 94.1134 36.3828 94.4958 36.3828C94.8222 36.3547 95.123 36.3267 95.4239 36.2731C96.4055 36.1099 96.4335 35.6179 96.5151 33.4354C96.5687 32.3442 96.5967 30.7074 96.5967 29.017V24.2161C96.5967 19.7697 96.5712 19.2802 96.5151 18.4056C96.4616 17.6433 96.2703 17.1793 95.5871 16.9881C95.3398 16.9065 94.9318 16.8784 94.5213 16.853C94.223 16.853 93.9502 16.7994 93.9502 16.5801C93.9502 16.3609 94.223 16.3073 94.7686 16.3073C96.3239 16.3073 97.7415 16.3889 98.8046 16.3889C99.0494 16.3889 102.433 16.3073 103.414 16.3073C103.906 16.3073 104.07 16.3889 104.07 16.5521C104.07 16.7969 103.797 16.853 103.414 16.853C103.141 16.881 102.869 16.881 102.486 16.9626C101.749 17.0977 101.558 17.6178 101.505 18.5714C101.451 19.4433 101.423 19.9889 101.423 24.489V29.0425V29.0451Z" fill="black"/>
<path d="M187.816 36.2451C187.351 36.0538 187.214 35.6994 187.214 35.1538C187.214 32.9433 187.295 31.9082 187.377 31.1433C187.433 30.6513 187.54 30.4881 187.703 30.4881C187.895 30.4881 187.923 30.7329 187.948 30.9521C187.976 31.2249 188.002 31.4697 188.086 31.7986C188.55 34.0346 190.595 35.317 192.721 35.317C195.311 35.317 196.104 33.981 196.104 32.8082C196.104 31.6635 195.885 30.7074 193.567 29.1266L191.877 27.9538C188.55 25.6082 187.622 23.6986 187.622 21.2994C187.622 18.1634 190.212 15.6266 194.577 15.6266C195.75 15.6266 196.568 15.6827 197.713 15.8994C198.149 15.981 198.613 16.0906 199.049 16.2257C199.322 16.3073 199.403 16.3889 199.403 16.6082C199.35 17.4801 199.294 18.0257 199.294 20.4529C199.294 20.945 199.212 21.1337 198.993 21.1337C198.858 21.1337 198.748 21.0521 198.692 20.6161C198.667 20.3433 198.582 19.6626 198.2 19.0354C197.682 18.1634 196.428 17.2354 194.462 17.2354C192.226 17.2354 191.408 18.4898 191.408 19.7442C191.408 20.6722 191.734 21.7354 193.59 22.9898L194.982 23.9178C198.799 26.4547 200 28.145 200 30.9011C200 32.7827 199.154 34.6363 197.109 35.8371C195.525 36.7907 193.782 37.0099 192.364 37.0099C190.319 37.0099 188.874 36.7371 187.81 36.2451H187.816Z" fill="black"/>
<path d="M37.6911 36.2451C37.2271 36.0538 37.0919 35.6994 37.0919 35.1538C37.0919 32.9433 37.1735 31.9082 37.2551 31.1433C37.3086 30.6513 37.4183 30.4881 37.5814 30.4881C37.7727 30.4881 37.8007 30.7329 37.8262 30.9521C37.8543 31.2249 37.8797 31.4697 37.9613 31.7986C38.4254 34.0346 40.4701 35.317 42.599 35.317C45.1894 35.317 45.9798 33.981 45.9798 32.8082C45.9798 31.6635 45.7605 30.7074 43.4429 29.1266L41.7526 27.9538C38.4254 25.6082 37.4973 23.6986 37.4973 21.2994C37.4973 18.1634 40.0877 15.6266 44.4526 15.6266C45.6254 15.6266 46.4438 15.6827 47.5886 15.8994C48.0245 15.981 48.4886 16.0906 48.9245 16.2257C49.1973 16.3073 49.2789 16.3889 49.2789 16.6082C49.2254 17.4801 49.1693 18.0257 49.1693 20.4529C49.1693 20.945 49.0877 21.1337 48.8684 21.1337C48.7333 21.1337 48.6237 21.0521 48.5676 20.6161C48.5395 20.3433 48.458 19.6626 48.0755 19.0354C47.558 18.1634 46.3036 17.2354 44.3404 17.2354C42.1044 17.2354 41.286 18.4898 41.286 19.7442C41.286 20.6722 41.6123 21.7354 43.4684 22.9898L44.8605 23.9178C48.6798 26.4547 49.8781 28.145 49.8781 30.9011C49.8781 32.7827 49.0316 34.6363 46.9869 35.8371C45.4061 36.7907 43.6596 37.0099 42.2421 37.0099C40.1973 37.0099 38.7517 36.7371 37.686 36.2451H37.6911Z" fill="black"/>
<path d="M159.755 28.0074C159.755 31.7705 160.329 33.3538 161.828 34.417C162.944 35.1538 163.873 35.1819 164.556 35.1819C165.428 35.1819 166.601 34.9907 167.557 34.1722C169.084 32.8618 169.084 29.9986 169.084 27.1915V23.9178C169.084 19.9073 169.084 19.1985 169.028 18.3266C168.974 17.2915 168.755 16.8274 167.855 16.6643C167.554 16.6107 167.391 16.6107 166.845 16.5546C166.491 16.5546 166.353 16.445 166.353 16.2818C166.353 16.1187 166.491 16.009 166.98 16.009C168.536 16.009 170.198 16.0906 170.634 16.0906C171.124 16.0906 172.898 16.009 174.234 16.009C174.645 16.009 174.805 16.0906 174.805 16.2818C174.805 16.417 174.695 16.5266 174.341 16.5546C174.04 16.5827 173.877 16.5827 173.495 16.6643C172.758 16.7994 172.541 17.2099 172.457 18.3266C172.403 19.1985 172.375 19.9073 172.375 23.9178V26.5898C172.375 29.7003 172.238 33.053 169.594 35.2099C167.903 36.6275 165.775 37.0099 163.921 37.0099C161.522 37.0099 159.123 36.6555 157.43 35.1819C155.984 33.981 154.893 31.9898 154.893 28.0634V23.9178C154.893 19.6906 154.893 18.9257 154.811 18.0538C154.758 17.2889 154.595 16.9345 153.965 16.7433C153.664 16.6337 153.037 16.5801 152.792 16.5521C152.384 16.524 152.218 16.417 152.218 16.2512C152.218 16.0881 152.438 16.0065 152.955 16.0065C154.128 16.0065 156.884 16.0881 157.129 16.0881C157.348 16.0881 160.594 16.0065 161.575 16.0065C162.039 16.0065 162.174 16.0881 162.174 16.2512C162.174 16.4705 162.039 16.524 161.682 16.5521C161.438 16.5801 161.055 16.6082 160.782 16.6617C160.018 16.8249 159.882 17.3985 159.829 18.2705C159.773 19.1425 159.747 20.4249 159.747 23.9153V28.0074H159.755Z" fill="black"/>
</svg>
